# xmcd
#
# Track frame offsets:
#	150
#	18100
#	32612
#	45775
#	64700
#	76687
#	92650
#	107012
#	122262
#	139487
#	156787
#	170287
#
# Disc length: 2448 seconds
#
# Revision: 0
# Processed by: cddbd v1.5.2PL0 Copyright (c) Steve Scherf et al.
# Submitted via: audiograbber 1.83.01
#
DISCID=7f098e0c
DTITLE=Peter Strunz - Oh Erzherzog Johann
DYEAR=1900
DGENRE=Schlager
TTITLE0=Oh Erzherzog Johann
TTITLE1=Auf die Liebe kommt es an
TTITLE2=Da ist ein Mann zuviel
TTITLE3=Ay, ay, ay, Paloma
TTITLE4=Einmal Paris bei Nacht erleben
TTITLE5=Engel meines Herzens
TTITLE6=Ein Freund fürs Leben
TTITLE7=Wär ich der Wind
TTITLE8=Klopf einmal an meine Tür
TTITLE9=Rund um die Welt
TTITLE10=Die Zauberwelt der Berge
TTITLE11=Gib niemals auf
EXTD=
EXTT0=
EXTT1=
EXTT2=
EXTT3=
EXTT4=
EXTT5=
EXTT6=
EXTT7=
EXTT8=
EXTT9=
EXTT10=
EXTT11=
PLAYORDER=
